<?xml version="1.0" encoding="UTF-8"?>
<svg xmlns="http://www.w3.org/2000/svg" width="320" height="180" viewBox="0 0 320 180" role="img" aria-labelledby="title desc">
  <title id="title">Masonry article card preview</title>
  <desc id="desc">Two compact columns of image-first article cards with text below each image.</desc>
  <rect width="320" height="180" rx="14" fill="#F4F5F7"/>

  <rect x="51" y="25" width="102" height="130" rx="8" fill="#FFFFFF" stroke="#DDE2E7"/>
  <rect x="167" y="31" width="102" height="124" rx="8" fill="#FFFFFF" stroke="#DDE2E7"/>

  <rect x="51" y="25" width="102" height="67" rx="8" fill="#AAB3BC"/>
  <rect x="51" y="77" width="102" height="15" fill="#AAB3BC"/>
  <path d="M51 76 76 52l19 15 19-24 35 34 4-3v18H51Z" fill="#69737D"/>
  <rect x="62" y="104" width="76" height="7" rx="3.5" fill="#252A2F"/>
  <rect x="62" y="116" width="58" height="7" rx="3.5" fill="#252A2F"/>
  <circle cx="66" cy="140" r="6" fill="#DDE2E7"/>
  <rect x="77" y="137" width="36" height="5" rx="2.5" fill="#AAB3BC"/>
  <circle cx="139" cy="140" r="5" fill="none" stroke="#69737D" stroke-width="2"/>

  <rect x="167" y="31" width="102" height="60" rx="8" fill="#C3CBD2"/>
  <path d="M167 77 190 54l18 14 17-22 22 24 22-15v36H167Z" fill="#8F9AA4"/>
  <rect x="178" y="103" width="75" height="7" rx="3.5" fill="#252A2F"/>
  <rect x="178" y="115" width="51" height="7" rx="3.5" fill="#252A2F"/>
  <circle cx="182" cy="140" r="6" fill="#DDE2E7"/>
  <rect x="193" y="137" width="35" height="5" rx="2.5" fill="#AAB3BC"/>
  <circle cx="255" cy="140" r="5" fill="none" stroke="#69737D" stroke-width="2"/>
</svg>
